<svg width="259" height="116" viewBox="0 0 259 116" fill="none" xmlns="http://www.w3.org/2000/svg">
<path d="M2.04492 60.9636L26.6575 60.8122C27.2633 64.9017 28.5508 66.492 30.444 68.6125C33.4733 72.0961 37.8657 73.8379 43.4698 73.8379C47.7107 73.8379 50.9672 72.9291 53.2391 71.1873C55.511 69.4455 56.647 67.325 56.647 65.0531C56.647 62.8569 55.5867 60.8122 53.3905 59.0704C51.1943 57.3286 46.1961 55.6625 38.2443 54.0721C25.3701 51.4973 16.1309 48.0136 10.6025 43.697C4.99843 39.3803 2.27211 33.8519 2.27211 27.1119C2.27211 22.7195 3.711 18.5543 6.51305 14.6163C9.39083 10.6783 13.6318 7.64902 19.3873 5.37709C25.1429 3.10516 32.9432 2.04492 42.8639 2.04492C55.0566 2.04492 62.9326 4.84697 69.2941 8.93644C75.7312 13.0259 79.8207 18.7057 81.0324 27.642L54.375 27.7935C53.6177 23.9312 52.1031 22.4166 49.6797 20.6747C47.3321 18.9329 43.9999 18.0242 39.8347 18.0242C36.4268 18.0242 33.7762 18.7057 32.0344 19.9932C30.2926 21.2806 29.4595 22.8709 29.4595 24.7642C29.4595 26.1274 30.2169 27.3391 31.58 28.475C32.9432 29.611 36.2753 30.6712 41.5008 31.6557C54.5265 34.0791 62.7812 37.4113 68.3853 39.9861C73.9894 42.561 77.6245 45.0601 80.1236 48.8467C82.6984 52.6332 83.5315 56.4198 83.5315 61.1151C83.5315 66.6435 82.547 71.566 79.2148 76.1856C75.8069 80.8052 72.2476 84.7432 66.1133 87.1666C60.0549 89.59 52.3303 90.8017 43.0911 90.8017C26.809 90.8017 17.7212 88.0753 11.4356 82.4712C5.14989 76.7914 2.87796 69.6727 2.04492 60.9636Z" fill="#00548A"/>
<path d="M87.6968 1.81763H112.158L144.041 50.967V1.81763H168.729V90.6501H144.041L112.309 41.8793V90.6501H87.6968V1.81763Z" fill="#00548A"/>
<path d="M174.56 1.81763H258.016V23.7796H229.995V90.7258H202.505V23.7796H174.484V1.81763H174.56Z" fill="#00548A"/>
<path d="M9.84517 100.041C9.76944 100.192 9.69371 100.268 9.61797 100.268C9.54224 100.344 9.46651 100.344 9.31505 100.344C9.16359 100.344 9.08786 100.268 8.9364 100.192C8.78493 100.116 8.63347 99.9649 8.40628 99.8892C8.17909 99.8135 7.95189 99.662 7.7247 99.5863C7.49751 99.5106 7.11885 99.4348 6.81593 99.4348C6.513 99.4348 6.21008 99.5106 5.98289 99.5863C5.75569 99.662 5.5285 99.7377 5.37704 99.8892C5.22558 100.041 5.07411 100.192 4.99838 100.419C4.92265 100.647 4.84692 100.798 4.84692 101.025C4.84692 101.328 4.92265 101.555 5.07411 101.782C5.22558 102.01 5.45277 102.161 5.75569 102.313C6.05862 102.464 6.36154 102.54 6.66447 102.691C7.04312 102.767 7.34604 102.918 7.7247 103.07C8.10335 103.221 8.48201 103.373 8.78493 103.524C9.16359 103.676 9.46651 103.903 9.69371 104.13C9.99663 104.357 10.1481 104.66 10.3753 105.039C10.5267 105.418 10.6025 105.872 10.6025 106.402C10.6025 106.932 10.5267 107.462 10.2996 107.992C10.0724 108.523 9.84517 108.901 9.46651 109.28C9.08786 109.659 8.63347 109.961 8.10335 110.113C7.57324 110.34 6.96739 110.416 6.28581 110.416C5.90716 110.416 5.5285 110.34 5.07411 110.264C4.69546 110.189 4.3168 110.037 3.93815 109.961C3.55949 109.81 3.25657 109.659 2.95365 109.431C2.65072 109.204 2.3478 108.977 2.12061 108.75L2.80218 107.614C2.87792 107.538 2.95365 107.462 3.02938 107.387C3.10511 107.311 3.25657 107.311 3.3323 107.311C3.48376 107.311 3.63523 107.387 3.78669 107.462C3.93815 107.614 4.16534 107.69 4.39254 107.841C4.61973 107.992 4.92265 108.144 5.22558 108.22C5.5285 108.371 5.90715 108.371 6.36154 108.371C7.04312 108.371 7.57324 108.22 7.87616 107.917C8.25482 107.614 8.40628 107.159 8.40628 106.554C8.40628 106.251 8.33055 105.948 8.17909 105.721C8.02762 105.493 7.80043 105.342 7.49751 105.19C7.19458 105.039 6.89166 104.963 6.58873 104.812C6.28581 104.66 5.90716 104.585 5.5285 104.509C5.14985 104.357 4.84692 104.282 4.46827 104.13C4.08961 103.979 3.78669 103.751 3.55949 103.524C3.25657 103.297 3.10511 102.918 2.87792 102.54C2.72645 102.161 2.65072 101.631 2.65072 101.101C2.65072 100.647 2.72645 100.192 2.95365 99.7378C3.10511 99.2834 3.40803 98.9047 3.71096 98.6018C4.08961 98.2989 4.46827 97.9959 4.99838 97.7688C5.5285 97.5416 6.05862 97.4658 6.7402 97.4658C7.49751 97.4658 8.17909 97.6173 8.78493 97.8445C9.39078 98.0717 9.9209 98.3746 10.3753 98.829L9.84517 100.041Z" fill="#00548A"/>
<path d="M19.993 101.404L15.1462 112.763C15.0705 112.915 14.9947 112.991 14.919 113.142C14.8433 113.218 14.6918 113.294 14.4646 113.294H12.8743L14.5404 109.734L10.9053 101.48H12.7985C12.95 101.48 13.1015 101.555 13.1772 101.631C13.2529 101.707 13.3287 101.782 13.4044 101.934L15.2977 106.554C15.3734 106.705 15.4491 106.856 15.4491 107.008C15.5249 107.159 15.5249 107.311 15.6006 107.462C15.6763 107.311 15.6763 107.159 15.7521 107.008C15.8278 106.856 15.8278 106.705 15.9035 106.554L17.7211 101.934C17.7968 101.782 17.8725 101.707 17.9483 101.631C18.024 101.555 18.1754 101.555 18.3269 101.555H19.993V101.404Z" fill="#00548A"/>
<path d="M26.3544 103.146C26.2786 103.221 26.2029 103.297 26.2029 103.373C26.1272 103.373 26.0515 103.449 25.9757 103.449C25.9 103.449 25.7485 103.449 25.6728 103.373C25.5213 103.297 25.4456 103.221 25.2941 103.146C25.1427 103.07 24.9912 102.994 24.764 102.919C24.5368 102.843 24.3096 102.843 24.0824 102.843C23.6281 102.843 23.3251 102.919 23.0979 103.146C22.8708 103.373 22.7193 103.524 22.7193 103.827C22.7193 104.055 22.795 104.206 22.8708 104.282C23.0222 104.433 23.1737 104.509 23.4009 104.66C23.6281 104.736 23.8553 104.812 24.0824 104.888C24.3096 104.963 24.6126 105.039 24.8398 105.115C25.1427 105.19 25.3699 105.342 25.5971 105.418C25.8243 105.569 26.1272 105.721 26.2786 105.872C26.5058 106.024 26.6573 106.251 26.8088 106.554C26.9602 106.781 26.9602 107.084 26.9602 107.462C26.9602 107.917 26.8845 108.295 26.733 108.674C26.5816 109.053 26.3544 109.356 26.0515 109.583C25.7485 109.81 25.3699 110.037 24.9155 110.189C24.4611 110.34 23.931 110.416 23.4009 110.416C23.0979 110.416 22.795 110.416 22.4921 110.34C22.1892 110.264 21.8863 110.189 21.6591 110.113C21.3561 110.037 21.1289 109.886 20.9017 109.734C20.6746 109.583 20.4474 109.431 20.2959 109.28L20.826 108.447C20.9017 108.371 20.9775 108.295 21.0532 108.22C21.1289 108.144 21.2804 108.144 21.3561 108.144C21.5076 108.144 21.5833 108.144 21.7348 108.22C21.8863 108.295 21.962 108.371 22.1134 108.447C22.2649 108.523 22.4164 108.598 22.6436 108.674C22.8708 108.75 23.0979 108.75 23.4766 108.75C23.7038 108.75 23.931 108.75 24.1582 108.674C24.3096 108.598 24.4611 108.523 24.6126 108.447C24.764 108.371 24.8398 108.22 24.8398 108.068C24.9155 107.917 24.9155 107.841 24.9155 107.69C24.9155 107.462 24.8398 107.311 24.764 107.16C24.6126 107.008 24.4611 106.932 24.2339 106.781C24.0067 106.705 23.7795 106.629 23.5523 106.554C23.3251 106.478 23.0222 106.402 22.7193 106.326C22.4164 106.251 22.1892 106.099 21.8862 106.024C21.6591 105.872 21.3561 105.721 21.2047 105.569C20.9775 105.342 20.826 105.115 20.6746 104.888C20.5231 104.585 20.5231 104.282 20.5231 103.903C20.5231 103.524 20.5988 103.221 20.7503 102.843C20.9017 102.54 21.1289 102.237 21.3561 102.01C21.6591 101.783 21.962 101.555 22.4164 101.404C22.8708 101.252 23.3251 101.177 23.8553 101.177C24.4611 101.177 24.9912 101.252 25.5213 101.48C26.0515 101.707 26.4301 101.934 26.8088 102.313L26.3544 103.146Z" fill="#00548A"/>
<path d="M31.5043 110.416C30.747 110.416 30.1412 110.189 29.6868 109.734C29.3081 109.28 29.0809 108.674 29.0809 107.917V102.994H28.1722C28.0207 102.994 27.945 102.994 27.8692 102.918C27.7935 102.843 27.7178 102.767 27.7178 102.615V101.782L29.1567 101.555L29.611 99.1318C29.611 98.9804 29.6868 98.9046 29.7625 98.8289C29.8382 98.7532 29.914 98.7532 30.0654 98.7532H31.2014V101.555H33.5491V103.07H31.2014V107.917C31.2014 108.22 31.2771 108.447 31.4286 108.598C31.5801 108.75 31.7315 108.825 31.9587 108.825C32.1102 108.825 32.1859 108.825 32.2616 108.75C32.3374 108.75 32.4131 108.674 32.4888 108.674C32.5646 108.674 32.6403 108.598 32.6403 108.598C32.716 108.598 32.716 108.522 32.7918 108.522C32.8675 108.522 32.9432 108.522 32.9432 108.598C33.0189 108.598 33.0189 108.674 33.0947 108.75L33.7005 109.81C33.3976 110.037 33.0189 110.264 32.6403 110.416C32.3374 110.34 31.883 110.416 31.5043 110.416Z" fill="#00548A"/>
<path d="M36.5784 106.099C36.5784 106.553 36.7299 106.932 36.8056 107.311C36.9571 107.614 37.1085 107.917 37.3357 108.144C37.5629 108.371 37.7901 108.522 38.093 108.598C38.396 108.674 38.6989 108.75 39.0776 108.75C39.4562 108.75 39.7591 108.674 39.9863 108.598C40.2135 108.522 40.4407 108.447 40.6679 108.295C40.8194 108.22 41.0466 108.144 41.198 107.992C41.3495 107.917 41.5009 107.841 41.5767 107.841C41.7281 107.841 41.8796 107.917 41.9553 108.068L42.5612 108.825C42.334 109.128 42.0311 109.356 41.7281 109.507C41.4252 109.658 41.1223 109.81 40.8194 109.961C40.5164 110.037 40.1378 110.189 39.8349 110.189C39.5319 110.264 39.1533 110.264 38.8504 110.264C38.2445 110.264 37.6387 110.189 37.1085 109.961C36.5784 109.734 36.124 109.431 35.7454 109.053C35.3667 108.674 35.0638 108.144 34.8366 107.538C34.6094 106.932 34.5337 106.251 34.5337 105.493C34.5337 104.887 34.6094 104.282 34.8366 103.751C35.0638 103.221 35.291 102.767 35.6697 102.388C36.0483 102.01 36.5027 101.707 37.0328 101.479C37.5629 101.252 38.1688 101.101 38.8504 101.101C39.3805 101.101 39.9106 101.177 40.365 101.404C40.8194 101.555 41.2738 101.858 41.5767 102.161C41.9553 102.54 42.1825 102.918 42.4097 103.448C42.6369 103.979 42.7126 104.509 42.7126 105.19C42.7126 105.493 42.7126 105.72 42.6369 105.872C42.5612 105.948 42.4097 106.023 42.2583 106.023H36.5784V106.099ZM40.5922 104.812C40.5922 104.509 40.5164 104.282 40.4407 104.054C40.365 103.827 40.2135 103.6 40.0621 103.373C39.9106 103.221 39.6834 103.07 39.4562 102.918C39.229 102.843 38.9261 102.767 38.6232 102.767C38.0173 102.767 37.4872 102.918 37.1843 103.297C36.8056 103.676 36.5784 104.13 36.5027 104.812H40.5922Z" fill="#00548A"/>
<path d="M44.1514 110.264V101.404H45.4388C45.7417 101.404 45.8932 101.555 45.9689 101.783L46.1204 102.464C46.2718 102.313 46.4233 102.161 46.5748 102.01C46.7262 101.858 46.9534 101.707 47.1049 101.631C47.3321 101.555 47.4835 101.48 47.7107 101.404C47.9379 101.328 48.1651 101.328 48.468 101.328C48.9982 101.328 49.4525 101.48 49.8312 101.783C50.2098 102.085 50.437 102.464 50.6642 102.994C50.8157 102.691 50.9672 102.464 51.1943 102.237C51.4215 102.01 51.6487 101.858 51.8759 101.707C52.1031 101.555 52.406 101.48 52.6332 101.404C52.9362 101.328 53.1634 101.328 53.4663 101.328C53.9207 101.328 54.3751 101.404 54.7537 101.555C55.1324 101.707 55.4353 101.934 55.7382 102.237C55.9654 102.54 56.1926 102.843 56.3441 103.297C56.4955 103.676 56.5712 104.206 56.5712 104.736V110.416H54.5265V104.736C54.5265 104.206 54.3751 103.752 54.1479 103.449C53.9207 103.146 53.542 102.994 53.0876 102.994C52.8604 102.994 52.6332 102.994 52.4818 103.07C52.3303 103.146 52.1031 103.221 51.9517 103.373C51.8002 103.524 51.7245 103.676 51.6487 103.903C51.573 104.13 51.4973 104.357 51.4973 104.66V110.34H49.3768V104.66C49.3768 104.054 49.2253 103.6 48.9981 103.373C48.771 103.07 48.3923 102.994 47.9379 102.994C47.635 102.994 47.3321 103.07 47.0291 103.221C46.7262 103.373 46.499 103.6 46.2718 103.827V110.34H44.1514V110.264Z" fill="#00548A"/>
<path d="M64.1444 103.146C64.0687 103.221 63.993 103.297 63.993 103.373C63.9172 103.373 63.8415 103.449 63.7658 103.449C63.69 103.449 63.5386 103.449 63.4628 103.373C63.3114 103.297 63.2357 103.221 63.0842 103.146C62.9327 103.07 62.7813 102.994 62.5541 102.919C62.3269 102.843 62.0997 102.843 61.8725 102.843C61.4181 102.843 61.1152 102.919 60.888 103.146C60.6608 103.373 60.5093 103.524 60.5093 103.827C60.5093 104.055 60.5851 104.206 60.6608 104.282C60.8123 104.433 60.9637 104.509 61.1909 104.66C61.4181 104.736 61.6453 104.812 61.8725 104.888C62.0997 104.963 62.4026 105.039 62.6298 105.115C62.9327 105.19 63.1599 105.342 63.3871 105.418C63.6143 105.569 63.9172 105.721 64.0687 105.872C64.2959 106.024 64.4473 106.251 64.5988 106.554C64.7503 106.781 64.7503 107.084 64.7503 107.462C64.7503 107.917 64.6745 108.295 64.5231 108.674C64.3716 109.053 64.1444 109.356 63.8415 109.583C63.5386 109.81 63.1599 110.037 62.7055 110.189C62.2511 110.34 61.721 110.416 61.1909 110.416C60.888 110.416 60.5851 110.416 60.2821 110.34C59.9792 110.264 59.6763 110.189 59.4491 110.113C59.1462 110.037 58.919 109.886 58.6918 109.734C58.4646 109.583 58.2374 109.431 58.0859 109.28L58.6161 108.447C58.6918 108.371 58.7675 108.295 58.8432 108.22C58.919 108.144 59.0704 108.144 59.1462 108.144C59.2976 108.144 59.3734 108.144 59.5248 108.22C59.6763 108.295 59.752 108.371 59.9035 108.447C60.0549 108.523 60.2064 108.598 60.4336 108.674C60.6608 108.75 60.888 108.75 61.2666 108.75C61.4938 108.75 61.721 108.75 61.9482 108.674C62.0997 108.598 62.2511 108.523 62.4026 108.447C62.5541 108.371 62.6298 108.22 62.6298 108.068C62.7055 107.917 62.7055 107.841 62.7055 107.69C62.7055 107.462 62.6298 107.311 62.5541 107.16C62.4026 107.008 62.2511 106.932 62.024 106.781C61.7968 106.705 61.5696 106.629 61.3424 106.554C61.1152 106.478 60.8123 106.402 60.5093 106.326C60.2064 106.251 59.9792 106.099 59.6763 106.024C59.4491 105.872 59.1462 105.721 58.9947 105.569C58.7675 105.342 58.6161 105.115 58.4646 104.888C58.3131 104.585 58.3131 104.282 58.3131 103.903C58.3131 103.524 58.3889 103.221 58.5403 102.843C58.6918 102.54 58.919 102.237 59.1462 102.01C59.4491 101.783 59.752 101.555 60.2064 101.404C60.6608 101.252 61.1152 101.177 61.6453 101.177C62.2511 101.177 62.7813 101.252 63.3114 101.48C63.8415 101.707 64.2202 101.934 64.5988 102.313L64.1444 103.146Z" fill="#00548A"/>
<path d="M65.9619 109.129C65.9619 108.977 65.9619 108.75 66.0376 108.598C66.1134 108.447 66.1891 108.295 66.3406 108.22C66.492 108.068 66.5678 107.993 66.7192 107.917C66.8707 107.841 67.0222 107.841 67.2493 107.841C67.4008 107.841 67.628 107.841 67.7795 107.917C67.9309 107.993 68.0824 108.068 68.1581 108.22C68.3096 108.371 68.3853 108.447 68.461 108.598C68.5368 108.75 68.5368 108.901 68.5368 109.129C68.5368 109.28 68.5368 109.507 68.461 109.659C68.3853 109.81 68.3096 109.962 68.1581 110.037C68.0067 110.189 67.9309 110.264 67.7795 110.34C67.628 110.416 67.4765 110.416 67.2493 110.416C67.0979 110.416 66.8707 110.416 66.7192 110.34C66.5678 110.264 66.4163 110.189 66.3406 110.037C66.1891 109.886 66.1134 109.81 66.0376 109.659C66.0376 109.507 65.9619 109.28 65.9619 109.129Z" fill="#00548A"/>
<path d="M85.576 97.7688V110.34H84.3643C84.2128 110.34 84.0614 110.34 83.9099 110.264C83.7584 110.189 83.6827 110.113 83.5312 109.961L77.0184 101.631C77.0184 102.01 77.0941 102.388 77.0941 102.691V110.416H74.9736V97.8445H76.1853C76.2611 97.8445 76.3368 97.8445 76.4125 97.8445C76.4883 97.8445 76.564 97.8445 76.6397 97.9203C76.7154 97.9203 76.7154 97.996 76.7912 97.996C76.8669 98.0717 76.8669 98.1474 76.9426 98.2232L83.5312 106.629C83.5312 106.402 83.5312 106.251 83.4555 106.023C83.4555 105.796 83.4555 105.645 83.4555 105.493V97.8445H85.576V97.7688Z" fill="#00548A"/>
<path d="M89.3626 106.099C89.3626 106.553 89.5141 106.932 89.5898 107.311C89.7413 107.614 89.8927 107.917 90.1199 108.144C90.3471 108.371 90.5743 108.522 90.8772 108.598C91.1801 108.674 91.4831 108.75 91.8617 108.75C92.2404 108.75 92.5433 108.674 92.7705 108.598C92.9977 108.522 93.2249 108.447 93.4521 108.295C93.6035 108.22 93.8307 108.144 93.9822 107.992C94.1337 107.917 94.2851 107.841 94.3608 107.841C94.5123 107.841 94.6638 107.917 94.7395 108.068L95.3454 108.825C95.1182 109.128 94.8152 109.356 94.5123 109.507C94.2094 109.658 93.9065 109.81 93.6035 109.961C93.3006 110.037 92.922 110.189 92.619 110.189C92.3161 110.264 91.9375 110.264 91.6345 110.264C91.0287 110.264 90.4228 110.189 89.8927 109.961C89.3626 109.734 88.9082 109.431 88.5296 109.053C88.1509 108.674 87.848 108.144 87.6208 107.538C87.3936 106.932 87.3179 106.251 87.3179 105.493C87.3179 104.887 87.3936 104.282 87.6208 103.751C87.848 103.221 88.0752 102.767 88.4538 102.388C88.8325 102.01 89.2869 101.707 89.817 101.479C90.3471 101.252 90.953 101.101 91.6345 101.101C92.1647 101.101 92.6948 101.177 93.1492 101.404C93.6035 101.555 94.0579 101.858 94.3608 102.161C94.7395 102.54 94.9667 102.918 95.1939 103.448C95.4211 103.979 95.4968 104.509 95.4968 105.19C95.4968 105.493 95.4968 105.72 95.4211 105.872C95.3454 105.948 95.1939 106.023 95.0424 106.023H89.3626V106.099ZM93.4521 104.812C93.4521 104.509 93.3763 104.282 93.3006 104.054C93.2249 103.827 93.0734 103.6 92.922 103.373C92.7705 103.221 92.5433 103.07 92.3161 102.918C92.0889 102.843 91.786 102.767 91.4831 102.767C90.8772 102.767 90.3471 102.918 90.0442 103.297C89.6655 103.676 89.4383 104.13 89.3626 104.812H93.4521Z" fill="#00548A"/>
<path d="M99.8891 110.416C99.1318 110.416 98.5259 110.189 98.0715 109.734C97.6929 109.28 97.4657 108.674 97.4657 107.917V102.994H96.5569C96.4055 102.994 96.3297 102.994 96.254 102.918C96.1783 102.843 96.1025 102.767 96.1025 102.615V101.782L97.5414 101.555L97.9958 99.1318C97.9958 98.9804 98.0715 98.9046 98.1473 98.8289C98.223 98.7532 98.2987 98.7532 98.4502 98.7532H99.5862V101.555H101.934V103.07H99.5862V107.917C99.5862 108.22 99.6619 108.447 99.8134 108.598C99.9648 108.75 100.116 108.825 100.343 108.825C100.495 108.825 100.571 108.825 100.646 108.75C100.722 108.75 100.798 108.674 100.874 108.674C100.949 108.674 101.025 108.598 101.025 108.598C101.101 108.598 101.101 108.522 101.177 108.522C101.252 108.522 101.328 108.522 101.328 108.598C101.404 108.598 101.404 108.674 101.479 108.75L102.085 109.81C101.782 110.037 101.404 110.264 101.025 110.416C100.722 110.34 100.268 110.416 99.8891 110.416Z" fill="#00548A"/>
<path d="M116.096 101.404L113.294 110.264H111.552C111.325 110.264 111.249 110.113 111.173 109.886L109.583 104.736C109.507 104.585 109.507 104.357 109.432 104.206C109.356 104.054 109.356 103.827 109.356 103.676C109.356 103.827 109.28 104.054 109.204 104.206C109.129 104.357 109.129 104.585 109.053 104.736L107.463 109.886C107.387 110.113 107.235 110.264 107.008 110.264H105.266L102.464 101.404H104.206C104.358 101.404 104.509 101.404 104.585 101.48C104.661 101.555 104.736 101.631 104.812 101.782L106.099 106.554C106.175 106.781 106.251 107.084 106.251 107.311C106.327 107.538 106.327 107.841 106.402 108.068C106.478 107.841 106.554 107.538 106.63 107.311C106.705 107.084 106.781 106.781 106.857 106.554L108.296 101.782C108.296 101.631 108.371 101.555 108.523 101.48C108.599 101.404 108.75 101.404 108.901 101.404H109.81C109.962 101.404 110.113 101.404 110.189 101.48C110.265 101.555 110.34 101.631 110.416 101.782L111.855 106.554C111.931 106.781 112.006 107.084 112.082 107.311C112.158 107.538 112.234 107.841 112.309 108.068C112.385 107.614 112.461 107.084 112.612 106.554L113.9 101.782C113.975 101.631 113.975 101.555 114.127 101.48C114.203 101.404 114.354 101.404 114.506 101.404H116.096Z" fill="#00548A"/>
<path d="M121.094 101.252C121.776 101.252 122.381 101.328 122.912 101.555C123.442 101.783 123.896 102.085 124.275 102.464C124.653 102.843 124.956 103.373 125.184 103.903C125.411 104.433 125.486 105.115 125.486 105.796C125.486 106.478 125.411 107.159 125.184 107.69C124.956 108.22 124.653 108.75 124.275 109.128C123.896 109.507 123.442 109.81 122.912 110.037C122.381 110.264 121.776 110.34 121.094 110.34C120.412 110.34 119.807 110.264 119.277 110.037C118.746 109.81 118.292 109.507 117.913 109.128C117.535 108.75 117.232 108.22 117.005 107.69C116.777 107.159 116.702 106.478 116.702 105.796C116.702 105.115 116.777 104.433 117.005 103.903C117.232 103.373 117.535 102.843 117.913 102.464C118.292 102.085 118.746 101.783 119.277 101.555C119.807 101.404 120.412 101.252 121.094 101.252ZM121.094 108.75C121.851 108.75 122.381 108.523 122.76 107.993C123.139 107.462 123.29 106.781 123.29 105.796C123.29 104.812 123.139 104.13 122.76 103.6C122.381 103.07 121.851 102.843 121.094 102.843C120.337 102.843 119.807 103.07 119.428 103.6C119.049 104.13 118.898 104.812 118.898 105.796C118.898 106.781 119.049 107.462 119.428 107.993C119.731 108.523 120.337 108.75 121.094 108.75Z" fill="#00548A"/>
<path d="M129.121 102.919C129.424 102.388 129.727 101.934 130.106 101.631C130.485 101.328 130.939 101.177 131.469 101.177C131.848 101.177 132.226 101.252 132.454 101.48L132.302 103.07C132.302 103.146 132.226 103.221 132.151 103.297C132.075 103.373 131.999 103.373 131.923 103.373C131.848 103.373 131.696 103.373 131.545 103.297C131.393 103.297 131.242 103.221 131.015 103.221C130.787 103.221 130.56 103.221 130.409 103.297C130.257 103.373 130.03 103.449 129.879 103.6C129.727 103.752 129.576 103.903 129.5 104.055C129.424 104.206 129.273 104.433 129.197 104.66V110.113H127.077V101.252H128.364C128.591 101.252 128.743 101.328 128.818 101.404C128.894 101.48 128.97 101.631 128.97 101.858L129.121 102.919Z" fill="#00548A"/>
<path d="M135.71 97.3901V104.736H136.089C136.24 104.736 136.316 104.736 136.468 104.66C136.543 104.66 136.619 104.509 136.695 104.433L138.891 101.707C138.967 101.555 139.118 101.48 139.194 101.404C139.27 101.328 139.421 101.328 139.648 101.328H141.617L138.815 104.66C138.588 104.887 138.437 105.115 138.209 105.266C138.361 105.342 138.437 105.418 138.512 105.569C138.588 105.721 138.664 105.796 138.815 105.948L141.769 110.264H139.8C139.648 110.264 139.497 110.264 139.345 110.189C139.194 110.113 139.118 110.037 139.042 109.886L136.771 106.478C136.695 106.326 136.619 106.251 136.543 106.251C136.468 106.175 136.316 106.175 136.165 106.175H135.71V110.264H133.59V97.3901H135.71Z" fill="#00548A"/>
<path d="M148.282 103.146C148.206 103.221 148.13 103.297 148.13 103.373C148.054 103.373 147.979 103.449 147.903 103.449C147.827 103.449 147.676 103.449 147.6 103.373C147.449 103.297 147.373 103.221 147.221 103.146C147.07 103.07 146.918 102.994 146.691 102.919C146.464 102.843 146.237 102.843 146.01 102.843C145.555 102.843 145.252 102.919 145.025 103.146C144.798 103.297 144.647 103.524 144.647 103.827C144.647 104.055 144.722 104.206 144.798 104.282C144.949 104.433 145.101 104.509 145.328 104.66C145.555 104.736 145.783 104.812 146.01 104.888C146.237 104.963 146.54 105.039 146.767 105.115C147.07 105.19 147.297 105.342 147.524 105.418C147.752 105.569 148.054 105.721 148.206 105.872C148.433 106.024 148.585 106.251 148.736 106.554C148.887 106.781 148.887 107.084 148.887 107.462C148.887 107.917 148.812 108.295 148.66 108.674C148.509 109.053 148.282 109.356 147.979 109.583C147.676 109.81 147.297 110.037 146.843 110.189C146.388 110.34 145.858 110.416 145.328 110.416C145.025 110.416 144.722 110.416 144.419 110.34C144.116 110.264 143.813 110.189 143.586 110.113C143.283 110.037 143.056 109.886 142.829 109.734C142.602 109.583 142.375 109.431 142.223 109.28L142.753 108.447C142.829 108.371 142.905 108.295 142.98 108.22C143.056 108.144 143.208 108.144 143.283 108.144C143.435 108.144 143.511 108.144 143.662 108.22C143.813 108.295 143.889 108.371 144.041 108.447C144.192 108.523 144.344 108.598 144.571 108.674C144.798 108.75 145.025 108.75 145.404 108.75C145.631 108.75 145.858 108.75 146.085 108.674C146.237 108.598 146.388 108.523 146.54 108.447C146.691 108.371 146.767 108.22 146.767 108.068C146.843 107.917 146.843 107.841 146.843 107.69C146.843 107.462 146.767 107.311 146.691 107.16C146.54 107.008 146.388 106.932 146.161 106.781C145.934 106.705 145.707 106.629 145.48 106.554C145.252 106.478 144.949 106.402 144.647 106.326C144.344 106.251 144.116 106.099 143.813 106.024C143.586 105.872 143.283 105.721 143.132 105.569C142.905 105.342 142.753 105.115 142.602 104.888C142.45 104.585 142.45 104.282 142.45 103.903C142.45 103.524 142.526 103.221 142.678 102.843C142.829 102.54 143.056 102.237 143.283 102.01C143.586 101.783 143.889 101.555 144.344 101.404C144.798 101.252 145.252 101.177 145.782 101.177C146.388 101.177 146.918 101.252 147.449 101.48C147.979 101.707 148.357 101.934 148.736 102.313L148.282 103.146Z" fill="#00548A"/>
<path d="M150.099 109.129C150.099 108.977 150.099 108.75 150.175 108.598C150.251 108.447 150.326 108.295 150.478 108.22C150.629 108.068 150.705 107.993 150.856 107.917C151.008 107.841 151.159 107.841 151.387 107.841C151.538 107.841 151.765 107.841 151.917 107.917C152.068 107.993 152.22 108.068 152.295 108.22C152.447 108.371 152.523 108.447 152.598 108.598C152.674 108.75 152.674 108.901 152.674 109.129C152.674 109.28 152.674 109.507 152.598 109.659C152.523 109.81 152.447 109.962 152.295 110.037C152.144 110.189 152.068 110.264 151.917 110.34C151.765 110.416 151.614 110.416 151.387 110.416C151.235 110.416 151.008 110.416 150.856 110.34C150.705 110.264 150.554 110.189 150.478 110.037C150.326 109.886 150.251 109.81 150.175 109.659C150.175 109.507 150.099 109.28 150.099 109.129Z" fill="#00548A"/>
<path d="M167.366 99.6621H163.579V110.264H161.231V99.6621H157.445V97.7688H167.366V99.6621Z" fill="#00548A"/>
<path d="M168.199 106.099C168.199 106.553 168.35 106.932 168.426 107.311C168.577 107.614 168.729 107.917 168.956 108.144C169.183 108.371 169.41 108.522 169.713 108.598C170.016 108.674 170.319 108.75 170.698 108.75C171.076 108.75 171.379 108.674 171.606 108.598C171.834 108.522 172.061 108.447 172.288 108.295C172.439 108.22 172.667 108.144 172.818 107.992C172.97 107.917 173.121 107.841 173.197 107.841C173.348 107.841 173.5 107.917 173.575 108.068L174.181 108.825C173.954 109.128 173.651 109.356 173.348 109.507C173.045 109.658 172.742 109.81 172.439 109.961C172.137 110.037 171.758 110.189 171.455 110.189C171.152 110.264 170.773 110.264 170.47 110.264C169.865 110.264 169.259 110.189 168.729 109.961C168.199 109.734 167.744 109.431 167.366 109.053C166.987 108.674 166.684 108.144 166.457 107.538C166.23 106.932 166.154 106.251 166.154 105.493C166.154 104.887 166.23 104.282 166.457 103.751C166.684 103.221 166.911 102.767 167.29 102.388C167.668 102.01 168.123 101.707 168.653 101.479C169.183 101.252 169.789 101.101 170.47 101.101C171.001 101.101 171.531 101.177 171.985 101.404C172.439 101.555 172.894 101.858 173.197 102.161C173.575 102.54 173.803 102.918 174.03 103.448C174.257 103.979 174.333 104.509 174.333 105.19C174.333 105.493 174.333 105.72 174.257 105.872C174.181 105.948 174.03 106.023 173.878 106.023H168.199V106.099ZM172.288 104.812C172.288 104.509 172.212 104.282 172.137 104.054C172.061 103.827 171.909 103.6 171.758 103.373C171.606 103.221 171.379 103.07 171.152 102.918C170.925 102.843 170.622 102.767 170.319 102.767C169.713 102.767 169.183 102.918 168.88 103.297C168.501 103.676 168.274 104.13 168.199 104.812H172.288Z" fill="#00548A"/>
<path d="M182.209 103.297C182.133 103.373 182.057 103.449 182.057 103.524C181.982 103.6 181.906 103.6 181.83 103.6C181.754 103.6 181.603 103.6 181.527 103.524C181.451 103.449 181.3 103.373 181.149 103.297C180.997 103.221 180.846 103.146 180.618 103.07C180.391 102.994 180.164 102.994 179.861 102.994C179.482 102.994 179.18 103.07 178.877 103.221C178.574 103.373 178.346 103.524 178.195 103.827C178.044 104.054 177.892 104.357 177.741 104.736C177.665 105.115 177.589 105.493 177.589 105.948C177.589 106.402 177.665 106.857 177.741 107.235C177.816 107.614 177.968 107.917 178.195 108.144C178.422 108.371 178.649 108.598 178.877 108.75C179.18 108.901 179.482 108.977 179.785 108.977C180.164 108.977 180.391 108.901 180.618 108.826C180.846 108.75 180.997 108.674 181.149 108.523C181.3 108.447 181.451 108.295 181.527 108.22C181.603 108.144 181.754 108.068 181.906 108.068C182.057 108.068 182.209 108.144 182.284 108.295L182.89 109.053C182.663 109.356 182.36 109.583 182.133 109.734C181.83 109.886 181.603 110.037 181.3 110.189C180.997 110.264 180.694 110.416 180.391 110.416C180.088 110.492 179.785 110.492 179.482 110.492C178.952 110.492 178.422 110.416 177.968 110.189C177.513 109.962 177.059 109.659 176.68 109.28C176.302 108.901 175.999 108.371 175.847 107.841C175.62 107.235 175.544 106.629 175.544 105.872C175.544 105.19 175.62 104.585 175.847 104.054C175.999 103.524 176.302 102.994 176.68 102.616C177.059 102.237 177.513 101.858 178.044 101.631C178.574 101.404 179.18 101.252 179.937 101.252C180.618 101.252 181.149 101.328 181.679 101.555C182.209 101.783 182.663 102.085 183.042 102.464L182.209 103.297Z" fill="#00548A"/>
<path d="M186.298 102.388C186.677 102.085 187.056 101.783 187.434 101.631C187.813 101.404 188.343 101.328 188.873 101.328C189.327 101.328 189.782 101.404 190.16 101.555C190.539 101.707 190.842 101.934 191.069 102.237C191.296 102.54 191.524 102.918 191.675 103.297C191.827 103.676 191.902 104.13 191.902 104.66V110.34H189.782V104.66C189.782 104.13 189.63 103.676 189.403 103.373C189.176 103.07 188.797 102.918 188.267 102.918C187.889 102.918 187.586 102.994 187.207 103.146C186.904 103.297 186.601 103.524 186.298 103.827V110.264H184.178V97.3901H186.298V102.388Z" fill="#00548A"/>
<path d="M195.992 102.464C196.143 102.313 196.371 102.085 196.598 101.934C196.825 101.783 196.976 101.631 197.204 101.555C197.431 101.48 197.658 101.328 197.885 101.328C198.112 101.252 198.415 101.252 198.718 101.252C199.173 101.252 199.627 101.328 200.006 101.48C200.384 101.631 200.687 101.858 200.914 102.161C201.142 102.464 201.369 102.843 201.52 103.221C201.672 103.6 201.747 104.054 201.747 104.585V110.264H199.627V104.585C199.627 104.054 199.476 103.6 199.248 103.297C199.021 102.994 198.643 102.843 198.112 102.843C197.734 102.843 197.431 102.919 197.052 103.07C196.749 103.221 196.446 103.449 196.143 103.752V110.189H194.023V101.328H195.31C195.613 101.328 195.765 101.48 195.84 101.707L195.992 102.464Z" fill="#00548A"/>
<path d="M207.655 101.252C208.336 101.252 208.942 101.328 209.472 101.555C210.002 101.783 210.457 102.085 210.835 102.464C211.214 102.843 211.517 103.373 211.744 103.903C211.971 104.433 212.047 105.115 212.047 105.796C212.047 106.478 211.971 107.159 211.744 107.69C211.517 108.22 211.214 108.75 210.835 109.128C210.457 109.507 210.002 109.81 209.472 110.037C208.942 110.264 208.336 110.34 207.655 110.34C206.973 110.34 206.367 110.264 205.837 110.037C205.307 109.81 204.853 109.507 204.474 109.128C204.095 108.75 203.792 108.22 203.565 107.69C203.338 107.159 203.262 106.478 203.262 105.796C203.262 105.115 203.338 104.433 203.565 103.903C203.792 103.373 204.095 102.843 204.474 102.464C204.853 102.085 205.307 101.783 205.837 101.555C206.443 101.404 207.049 101.252 207.655 101.252ZM207.655 108.75C208.412 108.75 208.942 108.523 209.321 107.993C209.699 107.462 209.851 106.781 209.851 105.796C209.851 104.812 209.699 104.13 209.321 103.6C208.942 103.07 208.412 102.843 207.655 102.843C206.897 102.843 206.367 103.07 205.989 103.6C205.61 104.13 205.458 104.812 205.458 105.796C205.458 106.781 205.61 107.462 205.989 107.993C206.367 108.523 206.897 108.75 207.655 108.75Z" fill="#00548A"/>
<path d="M215.909 97.3901V110.264H213.789V97.3901H215.909Z" fill="#00548A"/>
<path d="M221.968 101.252C222.649 101.252 223.255 101.328 223.785 101.555C224.315 101.783 224.77 102.085 225.148 102.464C225.527 102.843 225.83 103.373 226.057 103.903C226.284 104.433 226.36 105.115 226.36 105.796C226.36 106.478 226.284 107.159 226.057 107.69C225.83 108.22 225.527 108.75 225.148 109.128C224.77 109.507 224.315 109.81 223.785 110.037C223.255 110.264 222.649 110.34 221.968 110.34C221.286 110.34 220.68 110.264 220.15 110.037C219.62 109.81 219.166 109.507 218.787 109.128C218.408 108.75 218.105 108.22 217.878 107.69C217.651 107.159 217.575 106.478 217.575 105.796C217.575 105.115 217.651 104.433 217.878 103.903C218.105 103.373 218.408 102.843 218.787 102.464C219.166 102.085 219.62 101.783 220.15 101.555C220.68 101.404 221.286 101.252 221.968 101.252ZM221.968 108.75C222.725 108.75 223.255 108.523 223.634 107.993C224.012 107.462 224.164 106.781 224.164 105.796C224.164 104.812 224.012 104.13 223.634 103.6C223.255 103.07 222.725 102.843 221.968 102.843C221.21 102.843 220.68 103.07 220.302 103.6C219.923 104.13 219.771 104.812 219.771 105.796C219.771 106.781 219.923 107.462 220.302 107.993C220.68 108.523 221.21 108.75 221.968 108.75Z" fill="#00548A"/>
<path d="M235.751 101.707V102.54C235.751 102.767 235.599 102.918 235.297 102.994L234.463 103.146C234.615 103.448 234.615 103.751 234.615 104.13C234.615 104.584 234.539 104.963 234.388 105.342C234.236 105.72 233.933 106.023 233.63 106.251C233.328 106.478 232.949 106.705 232.494 106.856C232.04 107.008 231.586 107.084 231.131 107.084C230.98 107.084 230.753 107.084 230.601 107.084C230.45 107.084 230.298 107.008 230.147 107.008C229.844 107.159 229.768 107.387 229.768 107.538C229.768 107.689 229.844 107.841 229.995 107.917C230.147 107.992 230.374 108.068 230.677 108.068C230.98 108.068 231.283 108.144 231.586 108.144C231.964 108.144 232.267 108.144 232.646 108.22C233.025 108.22 233.403 108.295 233.706 108.371C234.085 108.447 234.388 108.522 234.615 108.75C234.918 108.901 235.069 109.128 235.297 109.356C235.448 109.658 235.524 109.961 235.524 110.416C235.524 110.794 235.448 111.173 235.221 111.552C234.994 111.93 234.766 112.233 234.388 112.536C234.009 112.839 233.555 113.066 233.025 113.218C232.494 113.369 231.889 113.445 231.207 113.445C230.525 113.445 229.92 113.369 229.465 113.218C228.935 113.066 228.556 112.915 228.254 112.688C227.951 112.46 227.648 112.233 227.496 111.93C227.345 111.627 227.269 111.325 227.269 111.022C227.269 110.643 227.421 110.264 227.648 109.961C227.875 109.658 228.254 109.431 228.708 109.28C228.481 109.128 228.254 108.977 228.178 108.825C228.026 108.598 227.951 108.371 227.951 107.992C227.951 107.841 227.951 107.689 228.026 107.614C228.102 107.462 228.178 107.311 228.254 107.159C228.329 107.008 228.481 106.856 228.632 106.781C228.784 106.629 228.935 106.553 229.162 106.478C228.708 106.251 228.329 105.948 228.102 105.493C227.875 105.115 227.723 104.584 227.723 104.054C227.723 103.6 227.799 103.221 227.951 102.843C228.102 102.464 228.405 102.161 228.708 101.934C229.011 101.707 229.39 101.479 229.844 101.328C230.298 101.177 230.753 101.101 231.283 101.101C231.661 101.101 232.04 101.177 232.343 101.252C232.646 101.328 232.949 101.479 233.252 101.631H235.751V101.707ZM233.555 110.719C233.555 110.567 233.479 110.416 233.403 110.264C233.328 110.189 233.176 110.037 232.949 110.037C232.797 109.961 232.57 109.961 232.343 109.886C232.116 109.886 231.813 109.81 231.586 109.81C231.283 109.81 231.056 109.81 230.753 109.734C230.45 109.734 230.223 109.734 229.92 109.658C229.692 109.81 229.465 109.961 229.314 110.113C229.162 110.264 229.087 110.491 229.087 110.719C229.087 110.87 229.162 111.022 229.238 111.173C229.314 111.325 229.465 111.4 229.617 111.552C229.768 111.627 229.995 111.703 230.298 111.779C230.601 111.855 230.904 111.855 231.283 111.855C231.661 111.855 232.04 111.855 232.343 111.779C232.646 111.703 232.873 111.627 233.025 111.552C233.176 111.476 233.328 111.325 233.403 111.173C233.555 111.022 233.555 110.87 233.555 110.719ZM231.131 105.645C231.434 105.645 231.661 105.645 231.813 105.569C232.04 105.493 232.192 105.417 232.267 105.266C232.419 105.115 232.494 104.963 232.57 104.812C232.646 104.66 232.646 104.433 232.646 104.206C232.646 103.751 232.494 103.448 232.267 103.146C232.04 102.918 231.586 102.767 231.056 102.767C230.525 102.767 230.147 102.918 229.844 103.146C229.617 103.373 229.465 103.751 229.465 104.206C229.465 104.433 229.465 104.584 229.541 104.812C229.617 104.963 229.692 105.115 229.844 105.266C229.995 105.417 230.147 105.493 230.374 105.569C230.677 105.569 230.904 105.645 231.131 105.645Z" fill="#00548A"/>
<path d="M239.613 98.829C239.613 98.9804 239.613 99.2076 239.537 99.3591C239.462 99.5106 239.386 99.662 239.234 99.8135C239.083 99.9649 238.931 100.041 238.78 100.116C238.629 100.192 238.401 100.192 238.25 100.192C238.098 100.192 237.871 100.192 237.72 100.116C237.568 100.041 237.417 99.9649 237.265 99.8135C237.114 99.662 237.038 99.5863 236.962 99.3591C236.887 99.2076 236.887 99.0562 236.887 98.829C236.887 98.6018 236.887 98.4503 236.962 98.2989C237.038 98.1474 237.114 97.9959 237.265 97.8445C237.417 97.693 237.493 97.6173 237.72 97.5416C237.871 97.4658 238.023 97.4658 238.25 97.4658C238.477 97.4658 238.629 97.4658 238.78 97.5416C238.931 97.6173 239.083 97.693 239.234 97.8445C239.386 97.9959 239.462 98.1474 239.537 98.2989C239.537 98.4503 239.613 98.6018 239.613 98.829ZM239.31 101.404V110.264H237.19V101.404H239.31Z" fill="#00548A"/>
<path d="M243.097 106.099C243.097 106.553 243.248 106.932 243.324 107.311C243.475 107.614 243.627 107.917 243.854 108.144C244.081 108.371 244.308 108.522 244.611 108.598C244.914 108.674 245.217 108.75 245.596 108.75C245.974 108.75 246.277 108.674 246.504 108.598C246.732 108.522 246.959 108.447 247.186 108.295C247.337 108.22 247.565 108.144 247.716 107.992C247.868 107.917 248.019 107.841 248.095 107.841C248.246 107.841 248.398 107.917 248.473 108.068L249.079 108.825C248.852 109.128 248.549 109.356 248.246 109.507C247.943 109.658 247.64 109.81 247.337 109.961C247.035 110.037 246.656 110.189 246.353 110.189C246.05 110.264 245.671 110.264 245.368 110.264C244.763 110.264 244.157 110.189 243.627 109.961C243.097 109.734 242.642 109.431 242.263 109.053C241.885 108.674 241.582 108.144 241.355 107.538C241.128 106.932 241.052 106.251 241.052 105.493C241.052 104.887 241.128 104.282 241.355 103.751C241.582 103.221 241.809 102.767 242.188 102.388C242.566 102.01 243.021 101.707 243.551 101.479C244.081 101.252 244.687 101.101 245.368 101.101C245.899 101.101 246.429 101.177 246.883 101.404C247.337 101.555 247.792 101.858 248.095 102.161C248.473 102.54 248.701 102.918 248.928 103.448C249.155 103.979 249.231 104.509 249.231 105.19C249.231 105.493 249.231 105.72 249.155 105.872C249.079 105.948 248.928 106.023 248.776 106.023H243.097V106.099ZM247.186 104.812C247.186 104.509 247.11 104.282 247.035 104.054C246.959 103.827 246.807 103.6 246.656 103.373C246.504 103.221 246.277 103.07 246.05 102.918C245.823 102.843 245.52 102.767 245.217 102.767C244.611 102.767 244.081 102.918 243.778 103.297C243.399 103.676 243.172 104.13 243.097 104.812H247.186Z" fill="#00548A"/>
<path d="M256.198 103.146C256.122 103.221 256.047 103.297 256.047 103.373C255.971 103.373 255.895 103.449 255.819 103.449C255.744 103.449 255.592 103.449 255.517 103.373C255.365 103.297 255.289 103.221 255.138 103.146C254.986 103.07 254.835 102.994 254.608 102.919C254.381 102.843 254.153 102.843 253.926 102.843C253.472 102.843 253.169 102.919 252.942 103.146C252.715 103.373 252.563 103.524 252.563 103.827C252.563 104.055 252.639 104.206 252.715 104.282C252.866 104.433 253.017 104.509 253.245 104.66C253.472 104.736 253.699 104.812 253.926 104.888C254.153 104.963 254.456 105.039 254.684 105.115C254.986 105.19 255.214 105.342 255.441 105.418C255.668 105.569 255.971 105.721 256.122 105.872C256.35 106.024 256.501 106.251 256.653 106.554C256.804 106.781 256.804 107.084 256.804 107.462C256.804 107.917 256.728 108.295 256.577 108.674C256.425 109.053 256.198 109.356 255.895 109.583C255.592 109.81 255.214 110.037 254.759 110.189C254.305 110.34 253.775 110.416 253.245 110.416C252.942 110.416 252.639 110.416 252.336 110.34C252.033 110.264 251.73 110.189 251.503 110.113C251.2 110.037 250.973 109.886 250.746 109.734C250.518 109.583 250.291 109.431 250.14 109.28L250.67 108.447C250.746 108.371 250.821 108.295 250.897 108.22C250.973 108.144 251.124 108.144 251.2 108.144C251.351 108.144 251.427 108.144 251.579 108.22C251.73 108.295 251.806 108.371 251.957 108.447C252.109 108.523 252.26 108.598 252.487 108.674C252.715 108.75 252.942 108.75 253.32 108.75C253.548 108.75 253.775 108.75 254.002 108.674C254.153 108.598 254.305 108.523 254.456 108.447C254.608 108.371 254.684 108.22 254.684 108.068C254.759 107.917 254.759 107.841 254.759 107.69C254.759 107.462 254.684 107.311 254.608 107.16C254.456 107.008 254.305 106.932 254.078 106.781C253.85 106.705 253.623 106.629 253.396 106.554C253.169 106.478 252.866 106.402 252.563 106.326C252.26 106.251 252.033 106.099 251.73 106.024C251.503 105.872 251.2 105.721 251.048 105.569C250.821 105.342 250.67 105.115 250.518 104.888C250.367 104.585 250.367 104.282 250.367 103.903C250.367 103.524 250.443 103.221 250.594 102.843C250.746 102.54 250.973 102.237 251.2 102.01C251.503 101.783 251.806 101.555 252.26 101.404C252.715 101.252 253.169 101.177 253.699 101.177C254.305 101.177 254.835 101.252 255.365 101.48C255.895 101.707 256.274 101.934 256.653 102.313L256.198 103.146Z" fill="#00548A"/>
</svg>
