<?xml version="1.0" standalone="no"?>
<!DOCTYPE svg PUBLIC "-//W3C//DTD SVG 20010904//EN"
 "http://www.w3.org/TR/2001/REC-SVG-20010904/DTD/svg10.dtd">
<svg version="1.0" xmlns="http://www.w3.org/2000/svg"
 width="259.000000pt" height="70.000000pt" viewBox="0 0 259.000000 70.000000"
 preserveAspectRatio="xMidYMid meet">

<g transform="translate(0.000000,70.000000) scale(0.100000,-0.100000)"
fill="#000000" stroke="none">
<path d="M251 690 c-7 -4 -11 -16 -9 -26 4 -22 37 -31 48 -13 16 25 -14 55
-39 39z"/>
<path d="M137 623 c-15 -14 -7 -62 12 -68 40 -12 70 20 51 56 -10 18 -50 26
-63 12z"/>
<path d="M40 498 c-25 -27 -25 -39 0 -66 36 -38 90 -19 90 33 0 52 -54 71 -90
33z"/>
<path d="M32 330 c-57 -53 8 -139 82 -110 38 14 50 53 30 96 -14 30 -21 34
-53 34 -24 0 -45 -7 -59 -20z"/>
<path d="M158 179 c-24 -18 -28 -28 -28 -69 0 -42 4 -52 31 -74 39 -33 84 -34
124 -2 26 21 30 31 30 71 0 39 -5 51 -28 71 -35 30 -91 32 -129 3z"/>
</g>
</svg>
